<svg width="18" height="18" viewBox="0 0 18 18" fill="none" xmlns="http://www.w3.org/2000/svg">
<path d="M17.8903 16.5065C17.8903 17.7153 16.5272 18.4216 15.5397 17.7245L4.90533 10.218C4.06389 9.62401 4.06389 8.376 4.90533 7.78203L15.5397 0.275478C16.5272 -0.421646 17.8903 0.284723 17.8903 1.49351L17.8903 16.5065Z" fill="#282828"/>
<path d="M-8.15392e-05 16.8269C-8.15392e-05 17.4445 0.500549 17.9451 1.11806 17.9451C1.73558 17.9451 2.23621 17.4445 2.23621 16.8269L2.23621 1.17291C2.23621 0.555397 1.73558 0.0547676 1.11806 0.0547676C0.500549 0.0547676 -8.15392e-05 0.555397 -8.15392e-05 1.17291L-8.15392e-05 16.8269Z" fill="#282828"/>
</svg>
