<svg width="42" height="42" viewBox="0 0 42 42" fill="none" xmlns="http://www.w3.org/2000/svg">
<path d="M15.9104 27.2985V13.8814C15.9107 13.7135 15.9561 13.5488 16.0419 13.4045C16.1277 13.2602 16.2508 13.1417 16.3981 13.0613C16.5455 12.9809 16.7118 12.9416 16.8796 12.9476C17.0473 12.9536 17.2104 13.0046 17.3517 13.0952L27.7889 19.8019C27.9211 19.8866 28.0298 20.0031 28.1051 20.1408C28.1804 20.2785 28.2199 20.433 28.2199 20.5899C28.2199 20.7469 28.1804 20.9013 28.1051 21.039C28.0298 21.1767 27.9211 21.2933 27.7889 21.378L17.3517 28.0865C17.2104 28.1772 17.0473 28.2282 16.8796 28.2341C16.7118 28.2401 16.5455 28.2008 16.3981 28.1204C16.2508 28.0401 16.1277 27.9215 16.0419 27.7772C15.9561 27.6329 15.9107 27.4682 15.9104 27.3004V27.2985Z" fill="#282828"/>
<path fill-rule="evenodd" clip-rule="evenodd" d="M20.5899 2.80771C15.8738 2.80771 11.3508 4.68119 8.016 8.016C4.68119 11.3508 2.80771 15.8738 2.80771 20.5899C2.80771 25.306 4.68119 29.829 8.016 33.1638C11.3508 36.4986 15.8738 38.3721 20.5899 38.3721C25.306 38.3721 29.829 36.4986 33.1638 33.1638C36.4986 29.829 38.3721 25.306 38.3721 20.5899C38.3721 15.8738 36.4986 11.3508 33.1638 8.016C29.829 4.68119 25.306 2.80771 20.5899 2.80771ZM0 20.5899C0 9.21866 9.21866 0 20.5899 0C31.9611 0 41.1798 9.21866 41.1798 20.5899C41.1798 31.9611 31.9611 41.1798 20.5899 41.1798C9.21866 41.1798 0 31.9611 0 20.5899Z" fill="#282828"/>
</svg>
