<svg width="42" height="42" viewBox="0 0 42 42" fill="none" xmlns="http://www.w3.org/2000/svg">
<path fill-rule="evenodd" clip-rule="evenodd" d="M20.5899 2.80771C15.8738 2.80771 11.3508 4.68119 8.016 8.016C4.68119 11.3508 2.80771 15.8738 2.80771 20.5899C2.80771 25.306 4.68119 29.829 8.016 33.1638C11.3508 36.4986 15.8738 38.3721 20.5899 38.3721C25.306 38.3721 29.829 36.4986 33.1638 33.1638C36.4986 29.829 38.3721 25.306 38.3721 20.5899C38.3721 15.8738 36.4986 11.3508 33.1638 8.016C29.829 4.68119 25.306 2.80771 20.5899 2.80771ZM0 20.5899C0 9.21866 9.21866 0 20.5899 0C31.9611 0 41.1798 9.21866 41.1798 20.5899C41.1798 31.9611 31.9611 41.1798 20.5899 41.1798C9.21866 41.1798 0 31.9611 0 20.5899Z" fill="#282828"/>
<path d="M15 14.2571C15 13.5629 15.5629 13 16.2571 13H16.8857C17.58 13 18.1429 13.5629 18.1429 14.2571V27.4571C18.1429 28.1514 17.58 28.7143 16.8857 28.7143H16.2571C15.5629 28.7143 15 28.1514 15 27.4571V14.2571Z" fill="#272727"/>
<path d="M24.1143 13C23.4201 13 22.8572 13.5629 22.8572 14.2571V27.4571C22.8572 28.1514 23.4201 28.7143 24.1143 28.7143H24.7429C25.4372 28.7143 26 28.1514 26 27.4571V14.2571C26 13.5629 25.4372 13 24.7429 13H24.1143Z" fill="#272727"/>
</svg>
